<?xml version="1.0" encoding="utf-8"?>
<!-- Generator: Adobe Illustrator 24.2.0, SVG Export Plug-In . SVG Version: 6.00 Build 0)  -->
<svg version="1.1" id="Layer_1" xmlns="http://www.w3.org/2000/svg" xmlns:xlink="http://www.w3.org/1999/xlink" x="0px" y="0px"
	 viewBox="0 0 52.2 65.58" style="enable-background:new 0 0 52.2 65.58;" xml:space="preserve">
<style type="text/css">
	.st0{fill:#FFFFFF;}
	.st1{fill:#222222;}
	.st2{opacity:0.36;}
	.st3{fill:#FFFFFF;stroke:#222222;stroke-width:0.25;stroke-miterlimit:10;}
</style>
<rect class="st0" width="52.2" height="65.58"/>
<rect x="1.12" y="0.92" class="st1" width="50" height="50"/>
<path class="st0" d="M40.32,36.12l-5.46-5.46V12.83c0.82-0.32,1.4-1.11,1.4-2.04c0-1.21-0.98-2.19-2.19-2.19
	c-1.21,0-2.19,0.98-2.19,2.19c0,0.95,0.61,1.76,1.45,2.06v24.26v3.49v0.13c0,0.63,0.24,1.22,0.69,1.67
	c0.46,0.46,1.06,0.69,1.67,0.69c0.6,0,1.21-0.23,1.67-0.69c0.92-0.92,0.92-2.42,0-3.34l-2.51-2.51V32.8l4.39,4.39
	c1.95,1.95,1.95,5.13,0,7.08c-1.95,1.95-5.13,1.95-7.08,0c-0.95-0.95-1.47-2.2-1.47-3.54V8.82c0.82-0.31,1.41-1.11,1.41-2.04
	c0-1.21-0.98-2.19-2.19-2.19c-1.21,0-2.19,0.98-2.19,2.19c0,0.95,0.61,1.75,1.45,2.06v16.15l-6.16-6.16v-7.71
	c0-1.74-0.68-3.38-1.91-4.61c-1.23-1.23-2.87-1.91-4.61-1.91c-1.74,0-3.38,0.68-4.61,1.91c-2.54,2.54-2.54,6.68,0,9.22l5.46,5.46V39
	c-0.83,0.31-1.43,1.11-1.43,2.05c0,1.21,0.98,2.19,2.19,2.19c1.21,0,2.19-0.98,2.19-2.19c0-0.94-0.6-1.74-1.43-2.05V22.69l2.65,2.65
	v17.67c-0.83,0.31-1.43,1.11-1.43,2.05c0,1.21,0.98,2.19,2.19,2.19c1.21,0,2.19-0.98,2.19-2.19c0-0.94-0.6-1.74-1.43-2.05V26.85
	l6.16,6.16v7.72c0,1.74,0.68,3.38,1.91,4.61c1.27,1.27,2.94,1.91,4.61,1.91c1.67,0,3.34-0.64,4.61-1.91
	C42.86,42.8,42.86,38.66,40.32,36.12z M34.09,9.88c0.5,0,0.9,0.41,0.9,0.9c0,0.5-0.41,0.9-0.9,0.9c-0.5,0-0.9-0.41-0.9-0.9
	C33.18,10.29,33.59,9.88,34.09,9.88z M36.31,40.13c0.33,0.33,0.33,0.87,0,1.2c-0.33,0.33-0.87,0.33-1.2,0
	c-0.16-0.16-0.25-0.37-0.25-0.6V40.6v-1.91L36.31,40.13z M18.12,41.96c-0.5,0-0.9-0.41-0.9-0.9c0-0.5,0.41-0.9,0.9-0.9
	c0.5,0,0.9,0.41,0.9,0.9C19.02,41.55,18.62,41.96,18.12,41.96z M22.28,45.96c-0.5,0-0.9-0.41-0.9-0.9c0-0.5,0.41-0.9,0.9-0.9
	c0.5,0,0.9,0.41,0.9,0.9C23.18,45.56,22.77,45.96,22.28,45.96z M29.19,30.87L12.97,14.65c-0.95-0.95-1.47-2.2-1.47-3.54
	c0-1.34,0.52-2.6,1.47-3.54c1.95-1.95,5.13-1.95,7.08,0c0.95,0.95,1.47,2.2,1.47,3.54v6.2l-2.65-2.65v-3.55
	c0-0.63-0.24-1.22-0.69-1.67c-0.92-0.92-2.42-0.92-3.34,0c-0.92,0.92-0.92,2.42,0,3.34l14.35,14.35V30.87z M17.36,11.12v2.04
	l-1.44-1.44c-0.33-0.33-0.33-0.87,0-1.2c0.33-0.33,0.87-0.33,1.2,0C17.27,10.68,17.36,10.89,17.36,11.12z M29.93,5.88
	c0.5,0,0.9,0.41,0.9,0.9c0,0.5-0.41,0.9-0.9,0.9c-0.5,0-0.9-0.41-0.9-0.9C29.03,6.28,29.43,5.88,29.93,5.88z"/>
<g class="st2">
	<polygon points="18.87,22.69 17.36,21.18 17.36,22.78 18.87,24.3 	"/>
	<polygon points="21.52,25.34 21.52,26.94 23.03,28.46 23.03,26.85 	"/>
	<polygon points="17.36,11.55 17.36,13.15 18.87,14.67 18.87,13.06 	"/>
	<polygon points="21.52,17.31 23.03,18.83 23.03,17.22 21.52,15.71 	"/>
	<polygon points="29.19,30.87 28.06,29.74 28.06,31.88 29.19,33.01 	"/>
	<polygon points="29.19,27.13 29.19,24.99 28.06,23.85 28.06,25.99 	"/>
	<polygon points="34.87,38.69 36,39.82 36,37.68 34.87,36.55 	"/>
	<polygon points="34.87,32.8 36,33.94 36,31.8 34.87,30.66 	"/>
</g>
<g>
	<path class="st1" d="M3.18,57.37h3.9v-4.04h2.05v10.11H7.07v-4.34h-3.9v4.34H1.12V53.33h2.06V57.37z"/>
	<path class="st1" d="M17.95,53.33l4.02,10.11h-2.23l-0.87-2.31h-4.2l-0.86,2.31h-2.15l4-10.11H17.95z M15.3,59.51h2.94l-0.82-2.32
		c-0.1-0.33-0.21-0.66-0.31-0.99c-0.12-0.37-0.23-0.74-0.33-1.13c-0.1,0.36-0.19,0.7-0.3,1.05c-0.1,0.31-0.2,0.63-0.31,0.96
		L15.3,59.51z"/>
	<path class="st1" d="M30.16,53.33v1.73h-3.55v2.41h3.41v1.66h-3.41v4.31h-2.06V53.33H30.16z"/>
	<path class="st1" d="M38.6,55.18c-0.14-0.06-0.29-0.13-0.43-0.19c-0.21-0.07-0.84-0.27-1.53-0.26c-0.09,0-1.2-0.03-1.59,0.67
		c-0.06,0.09-0.14,0.29-0.14,0.56c0,0.17,0.04,0.54,0.4,0.83c0.21,0.17,0.54,0.31,1.1,0.53c0.44,0.17,0.9,0.33,1.33,0.56
		c0.53,0.27,1.69,0.93,1.69,2.61c0,1.38-0.83,2.46-2.13,2.88c-0.52,0.16-1.07,0.2-1.6,0.2c-1.06,0-1.65-0.13-2.65-0.4l0.17-1.83
		c0.19,0.1,0.36,0.2,0.54,0.27c0.47,0.2,1.25,0.34,1.76,0.34c0.19,0,1.19,0.01,1.62-0.75c0.14-0.24,0.16-0.49,0.16-0.59
		c0-0.27-0.1-0.46-0.16-0.56c-0.2-0.37-0.53-0.53-1.29-0.84c-0.52-0.2-1.03-0.4-1.52-0.66c-0.97-0.53-1.52-1.27-1.52-2.42
		c0-0.39,0.04-1.36,0.87-2.12c0.97-0.89,2.31-0.86,2.68-0.86c0.96,0,1.49,0.11,2.42,0.34L38.6,55.18z"/>
	<path class="st1" d="M47.12,53.33l4.02,10.11h-2.23l-0.87-2.31h-4.2l-0.86,2.31h-2.15l4-10.11H47.12z M44.47,59.51h2.94l-0.82-2.32
		c-0.1-0.33-0.21-0.66-0.31-0.99c-0.12-0.37-0.23-0.74-0.33-1.13c-0.1,0.36-0.19,0.7-0.3,1.05c-0.1,0.31-0.2,0.63-0.31,0.96
		L44.47,59.51z"/>
</g>
<g>
	<path class="st1" d="M46.76,19.85c-0.15,0-0.28-0.02-0.4-0.07c-0.11-0.05-0.22-0.12-0.32-0.22c-0.01-0.01-0.02-0.02-0.03-0.03
		c-0.01-0.01-0.01-0.03-0.01-0.04c0-0.02,0.01-0.05,0.03-0.07c0.02-0.02,0.04-0.03,0.06-0.03c0.02,0,0.05,0.01,0.07,0.03
		c0.08,0.08,0.17,0.15,0.27,0.19c0.1,0.04,0.21,0.07,0.32,0.07c0.1,0,0.18-0.01,0.26-0.04c0.08-0.03,0.13-0.07,0.18-0.13
		c0.04-0.06,0.07-0.12,0.07-0.2c0-0.09-0.03-0.17-0.08-0.22c-0.05-0.06-0.11-0.1-0.2-0.14s-0.17-0.07-0.27-0.1
		c-0.08-0.03-0.16-0.05-0.24-0.09c-0.08-0.03-0.14-0.07-0.2-0.11c-0.06-0.04-0.1-0.1-0.13-0.17c-0.03-0.07-0.05-0.15-0.05-0.24
		c0-0.11,0.03-0.2,0.08-0.28c0.06-0.08,0.14-0.15,0.24-0.2c0.1-0.05,0.22-0.07,0.36-0.07c0.12,0,0.23,0.02,0.34,0.06
		s0.2,0.1,0.26,0.18c0.03,0.03,0.04,0.06,0.04,0.09c0,0.02-0.01,0.04-0.03,0.06c-0.02,0.02-0.04,0.03-0.07,0.03
		c-0.02,0-0.04-0.01-0.05-0.02c-0.03-0.04-0.08-0.08-0.13-0.11c-0.05-0.03-0.11-0.06-0.17-0.08s-0.13-0.03-0.2-0.03
		c-0.09,0-0.18,0.01-0.25,0.04c-0.07,0.03-0.13,0.07-0.18,0.12s-0.06,0.12-0.06,0.2c0,0.08,0.02,0.15,0.07,0.21
		c0.05,0.05,0.11,0.1,0.19,0.13c0.08,0.03,0.16,0.07,0.25,0.1c0.09,0.02,0.17,0.05,0.25,0.08c0.08,0.03,0.15,0.07,0.21,0.12
		c0.06,0.05,0.11,0.1,0.14,0.17c0.04,0.07,0.05,0.16,0.05,0.26c0,0.1-0.03,0.19-0.09,0.28c-0.06,0.08-0.14,0.15-0.24,0.2
		C47.01,19.83,46.9,19.85,46.76,19.85z"/>
	<path class="st1" d="M47.75,22.38c0,0.16-0.03,0.3-0.07,0.43s-0.12,0.25-0.21,0.34c-0.09,0.1-0.2,0.17-0.32,0.23
		c-0.12,0.05-0.26,0.08-0.4,0.08c-0.15,0-0.28-0.03-0.41-0.08c-0.12-0.05-0.23-0.13-0.32-0.23s-0.16-0.21-0.21-0.34
		c-0.05-0.13-0.08-0.28-0.08-0.43s0.02-0.3,0.08-0.43c0.05-0.13,0.12-0.25,0.21-0.34s0.2-0.17,0.32-0.23
		c0.12-0.05,0.26-0.08,0.41-0.08c0.15,0,0.28,0.03,0.4,0.08c0.12,0.05,0.23,0.13,0.32,0.23c0.09,0.1,0.16,0.21,0.21,0.34
		C47.72,22.07,47.75,22.22,47.75,22.38z M47.56,22.38c0-0.18-0.04-0.33-0.11-0.47s-0.17-0.24-0.29-0.32s-0.26-0.11-0.42-0.11
		c-0.16,0-0.3,0.04-0.42,0.11s-0.22,0.18-0.29,0.32s-0.1,0.29-0.1,0.47s0.03,0.33,0.1,0.47s0.17,0.24,0.29,0.32s0.26,0.11,0.42,0.11
		c0.16,0,0.3-0.04,0.42-0.11s0.22-0.18,0.29-0.32S47.56,22.56,47.56,22.38z"/>
	<path class="st1" d="M46.27,27.04c-0.03,0-0.05-0.01-0.07-0.03c-0.02-0.02-0.03-0.04-0.03-0.06v-1.92c0-0.02,0.01-0.04,0.03-0.06
		c0.02-0.02,0.04-0.03,0.07-0.03h1.09c0.02,0,0.04,0.01,0.06,0.03c0.02,0.02,0.03,0.04,0.03,0.06c0,0.02-0.01,0.04-0.03,0.06
		c-0.02,0.02-0.04,0.03-0.06,0.03h-1.01l0.01-0.02v0.8l-0.01-0.03h0.88c0.02,0,0.04,0.01,0.06,0.03c0.02,0.02,0.03,0.04,0.03,0.06
		c0,0.02-0.01,0.04-0.03,0.06c-0.02,0.02-0.04,0.03-0.06,0.03h-0.89l0.02-0.03v0.93c0,0.02-0.01,0.05-0.03,0.06
		C46.31,27.03,46.29,27.04,46.27,27.04z"/>
	<path class="st1" d="M46.03,28.71c-0.02,0-0.04-0.01-0.06-0.02c-0.02-0.02-0.03-0.04-0.03-0.06c0-0.03,0.01-0.05,0.03-0.06
		c0.02-0.02,0.04-0.02,0.06-0.02h1.43c0.03,0,0.05,0.01,0.07,0.02c0.02,0.02,0.03,0.04,0.03,0.06c0,0.03-0.01,0.05-0.03,0.06
		c-0.02,0.02-0.04,0.02-0.07,0.02H46.03z M46.74,30.64c-0.03,0-0.05-0.01-0.07-0.03c-0.02-0.02-0.03-0.04-0.03-0.06v-1.91h0.19v1.91
		c0,0.02-0.01,0.05-0.03,0.06C46.79,30.63,46.77,30.64,46.74,30.64z"/>
	<path class="st1" d="M48.01,32.14c0.02,0,0.05,0.01,0.07,0.02c0.02,0.01,0.03,0.04,0.03,0.07c0,0.01,0,0.02-0.01,0.04l-0.66,1.92
		c-0.01,0.02-0.02,0.03-0.03,0.04c-0.02,0.01-0.03,0.01-0.05,0.01c-0.02,0-0.04,0-0.05-0.01c-0.02-0.01-0.03-0.02-0.04-0.04
		l-0.53-1.32l0.02,0.01l-0.53,1.31c-0.01,0.02-0.02,0.03-0.04,0.04c-0.02,0.01-0.04,0.01-0.05,0.01c-0.02,0-0.03,0-0.05-0.01
		c-0.02-0.01-0.03-0.02-0.03-0.04l-0.67-1.92c0-0.01-0.01-0.03-0.01-0.04c0-0.03,0.01-0.05,0.03-0.07c0.02-0.02,0.04-0.02,0.07-0.02
		c0.02,0,0.04,0.01,0.05,0.02c0.02,0.01,0.03,0.02,0.03,0.04l0.6,1.76l-0.03,0l0.52-1.3c0.01-0.02,0.02-0.03,0.03-0.04
		c0.01-0.01,0.03-0.02,0.05-0.01c0.02,0,0.04,0,0.05,0.01c0.02,0.01,0.03,0.03,0.04,0.04l0.51,1.3l-0.03,0.01l0.6-1.77
		c0.01-0.02,0.02-0.03,0.03-0.04C47.97,32.14,47.99,32.14,48.01,32.14z"/>
	<path class="st1" d="M46.76,35.99l-0.73,1.81c-0.01,0.02-0.02,0.03-0.03,0.04c-0.01,0.01-0.03,0.01-0.05,0.01
		c-0.03,0-0.05-0.01-0.07-0.02c-0.01-0.01-0.02-0.03-0.02-0.06c0-0.01,0-0.02,0-0.04l0.79-1.94c0.01-0.02,0.02-0.04,0.03-0.05
		c0.02-0.01,0.03-0.01,0.05-0.01c0.02,0,0.04,0,0.06,0.02c0.01,0.01,0.03,0.03,0.03,0.04l0.79,1.93c0,0.01,0.01,0.02,0.01,0.04
		c0,0.03-0.01,0.05-0.03,0.06c-0.02,0.01-0.04,0.02-0.06,0.02c-0.02,0-0.04-0.01-0.05-0.02c-0.02-0.01-0.03-0.03-0.04-0.04
		l-0.75-1.83L46.76,35.99z M46.2,37.25l0.08-0.18h0.93l0.04,0.18H46.2z"/>
	<path class="st1" d="M46.12,41.46c-0.03,0-0.05-0.01-0.07-0.03c-0.02-0.02-0.03-0.04-0.03-0.06v-1.92c0-0.02,0.01-0.04,0.03-0.06
		c0.02-0.02,0.04-0.03,0.07-0.03h0.81c0.11,0,0.22,0.02,0.31,0.07c0.09,0.05,0.16,0.12,0.21,0.2c0.05,0.09,0.08,0.18,0.08,0.29
		c0,0.09-0.02,0.17-0.05,0.24c-0.03,0.07-0.08,0.14-0.14,0.19c-0.06,0.05-0.12,0.09-0.2,0.12l-0.11-0.04
		c0.07,0.01,0.14,0.03,0.21,0.07c0.06,0.04,0.12,0.1,0.15,0.17c0.04,0.07,0.06,0.16,0.06,0.25c0,0.09,0.01,0.15,0.01,0.2
		c0.01,0.05,0.02,0.08,0.03,0.11c0.01,0.02,0.03,0.04,0.05,0.06c0.02,0.01,0.03,0.03,0.04,0.05c0.01,0.02,0,0.04-0.01,0.06
		c-0.01,0.02-0.02,0.03-0.04,0.03c-0.02,0.01-0.03,0.01-0.05,0.01c-0.02,0-0.03,0-0.05-0.01c-0.03-0.02-0.06-0.04-0.09-0.08
		s-0.05-0.08-0.07-0.15c-0.02-0.07-0.03-0.16-0.03-0.28c0-0.08-0.01-0.14-0.04-0.19c-0.03-0.05-0.06-0.09-0.1-0.12
		s-0.08-0.05-0.13-0.06c-0.05-0.01-0.09-0.01-0.13-0.01h-0.7l0.03-0.04v0.85c0,0.02-0.01,0.04-0.02,0.06
		C46.17,41.45,46.15,41.46,46.12,41.46z M46.17,40.4h0.75c0.07-0.01,0.13-0.03,0.19-0.07c0.06-0.04,0.11-0.09,0.15-0.16
		s0.06-0.15,0.06-0.24c0-0.11-0.04-0.21-0.12-0.28s-0.18-0.11-0.3-0.11h-0.72l0.02-0.04v0.94L46.17,40.4z"/>
	<path class="st1" d="M46.26,42.96h1.1c0.03,0,0.05,0.01,0.07,0.03c0.02,0.02,0.03,0.04,0.03,0.06c0,0.03-0.01,0.05-0.03,0.06
		c-0.02,0.02-0.04,0.02-0.07,0.02h-1.03l0.03-0.05v0.84l-0.03-0.04h0.9c0.03,0,0.05,0.01,0.07,0.03c0.02,0.02,0.03,0.04,0.03,0.06
		c0,0.03-0.01,0.05-0.03,0.06c-0.02,0.02-0.04,0.02-0.07,0.02h-0.89l0.03-0.03v0.87l-0.01-0.02h1.02c0.03,0,0.05,0.01,0.07,0.03
		c0.02,0.02,0.03,0.04,0.03,0.06c0,0.03-0.01,0.05-0.03,0.06c-0.02,0.02-0.04,0.02-0.07,0.02h-1.1c-0.03,0-0.05-0.01-0.07-0.03
		c-0.02-0.02-0.03-0.04-0.03-0.06v-1.92c0-0.02,0.01-0.04,0.03-0.06C46.21,42.97,46.24,42.96,46.26,42.96z"/>
</g>
</svg>
